<?xml version="1.0" encoding="iso-8859-1"?>
<!-- Generator: Adobe Illustrator 19.0.0, SVG Export Plug-In . SVG Version: 6.00 Build 0)  -->
<svg version="1.1" id="Capa_1" xmlns="http://www.w3.org/2000/svg" xmlns:xlink="http://www.w3.org/1999/xlink" x="0px" y="0px"
	 viewBox="0 0 512 512" style="enable-background:new 0 0 512 512;" xml:space="preserve">
<g transform="matrix(1.25 0 0 -1.25 0 45)">
	<g>
		<g>
			<path style="fill:#226699;" d="M379.995-217.087c-86.039-55.467-228.261,4.972-209.067,91.728
				c16.828,76.049,107.167,54.192,127.716,43.93c20.537-10.263,8.112,44.248-39.538,60.598
				C194.56,1.332,115.541-3.355,90.579-114.687c-17.067-76.083,16.35-182.75,144.703-184.172
				C363.645-300.281,379.995-217.087,379.995-217.087"/>
			<path style="fill:#55ACEE;" d="M409.464-234.324c0,24.417-31.334,26.556-45.511,12.732
				c-34.065-33.212-84.218-45.648-151.302-32.552C96.029-231.389,94.982-94.707,174.729-55.704
				c43.133,21.106,94.299-3.88,113.766-18.819c16.93-13.016,49.311-30.276,47.616-8.556
				c-3.629,46.217-94.208,145.192-215.563,82.614C-0.819-63.043,0-204.275,0-229.875v-82.489c0-25.134,20.639-44.919,45.773-44.919
				h318.578c25.134,0,45.249,19.786,45.249,44.919C409.6-312.364,409.555-234.392,409.464-234.324"/>
		</g>
	</g>
</g>
<g>
</g>
<g>
</g>
<g>
</g>
<g>
</g>
<g>
</g>
<g>
</g>
<g>
</g>
<g>
</g>
<g>
</g>
<g>
</g>
<g>
</g>
<g>
</g>
<g>
</g>
<g>
</g>
<g>
</g>
</svg>
