<?xml version="1.0" encoding="iso-8859-1"?>
<!-- Generator: Adobe Illustrator 19.0.0, SVG Export Plug-In . SVG Version: 6.00 Build 0)  -->
<svg version="1.1" id="Capa_1" xmlns="http://www.w3.org/2000/svg" xmlns:xlink="http://www.w3.org/1999/xlink" x="0px" y="0px"
	 viewBox="0 0 512.057 512.057" style="enable-background:new 0 0 512.057 512.057;" xml:space="preserve">
<g transform="matrix(1.25 0 0 -1.25 0 45)">
	<g>
		<g>
			<path style="fill:#3B88C3;" d="M409.646-4.027C386.89-38.16,386.89,7.351,352.757-26.783c-34.133,22.756-34.133-34.133-68.267,0
				c10.229-30.709,38.901-52.042,69.404-56.047c-3.152-20.355,2.298-44.897-23.893-69.097c-22.847-21.129-34.395-3.55-91.022,34.122
				c-34.133,22.71-56.889,45.511-113.778,34.133C58.266-97.063,0.046-151.927,0.046-174.682s34.133-158.936,238.933-158.936
				c22.756,0,59.654,7.555,91.022,33.781c67.755,56.639,66.924,174.638,52.11,221.366C402.364-65.649,409.646-31.254,409.646-4.027"
				/>
			<path style="fill:#55ACEE;" d="M343.768-286.321c1.695,1.877,3.288,3.846,4.881,5.814c21.379,26.738,33.018,60.848,38.172,94.322
				c-22.744-56.843-34.202-113.641-159.266-113.641C102.4-299.827,56.889-151.915,0-174.671
				c0-22.767,34.133-158.936,238.933-158.936c22.756,0,59.654,7.555,91.022,33.781c3.63,3.015,6.963,6.292,10.24,9.648
				C341.402-288.915,342.596-287.63,343.768-286.321"/>
			<path style="fill:#292F33;" d="M91.068-168.993c0-9.421-7.634-17.067-17.067-17.067s-17.067,7.646-17.067,17.067
				c0,9.421,7.634,17.067,17.067,17.067S91.068-159.573,91.068-168.993"/>
		</g>
	</g>
</g>
<g>
</g>
<g>
</g>
<g>
</g>
<g>
</g>
<g>
</g>
<g>
</g>
<g>
</g>
<g>
</g>
<g>
</g>
<g>
</g>
<g>
</g>
<g>
</g>
<g>
</g>
<g>
</g>
<g>
</g>
</svg>
